<?xml version="1.0" encoding="UTF-8"?>
<svg width="56px" height="56px" viewBox="0 0 56 56" version="1.1" xmlns="http://www.w3.org/2000/svg" xmlns:xlink="http://www.w3.org/1999/xlink">
    <title>hivemq-bee-neg</title>
    <g id="assets" stroke="none" stroke-width="1" fill="none" fill-rule="evenodd">
        <g id="01-hivemq-bee" transform="translate(4.5723, 4.5723)">
            <circle id="Oval" fill="#FFC000" cx="23.4443077" cy="23.3529231" r="21.6249231"></circle>
            <path d="M23.4276923,46.8553846 C10.5092308,46.8553846 0,36.3461538 0,23.4276923 C0,10.5092308 10.5092308,0 23.4276923,0 C36.3461538,0 46.8553846,10.5092308 46.8553846,23.4276923 C46.8553846,36.3461538 36.3461538,46.8553846 23.4276923,46.8553846 Z M23.4276923,1.98553846 C11.6058462,1.98553846 1.98553846,11.6058462 1.98553846,23.4276923 C1.98553846,35.2495385 11.6058462,44.8698462 23.4276923,44.8698462 C35.2495385,44.8698462 44.8698462,35.2495385 44.8698462,23.4276923 C44.8698462,11.6058462 35.2495385,1.98553846 23.4276923,1.98553846 Z" id="Shape" fill="#000000" fill-rule="nonzero"></path>
            <path d="M34.344,31.6523077 C33.7292308,32.5744615 31.9430769,32.1590769 29.0852308,31.2950769 C28.9523077,31.2535385 28.8276923,31.2618462 28.7030769,31.3116923 C29.5753846,30.0406154 29.7664615,27.7061538 29.4590769,26.0030769 C29.4590769,25.9947692 29.4590769,25.9864615 29.4590769,25.9781538 C29.4590769,25.9698462 29.4590769,25.9698462 29.4590769,25.9615385 C29.3676923,25.2969231 29.2181538,24.7652308 29.052,24.5326154 C32.8486154,27.5898462 34.9670769,30.5806154 34.344,31.6523077 Z" id="Path" fill="#FFFFFF"></path>
            <g id="Group" transform="translate(8.1446, 10.633)">
                <path d="M10.5975708,18.7679163 C10.8301861,19.532224 11.1874169,20.2466855 11.6775708,20.8697625 L19.0464938,20.8697625 C19.5449554,20.2466855 19.9021861,19.532224 20.1264938,18.7679163 L10.5975708,18.7679163 Z M26.1578784,11.1746855 C25.9252631,11.3906855 25.9169554,11.756224 26.1329554,11.9971471 L26.2160323,12.0885317 C29.5640323,9.23068554 31.5828015,7.02083938 30.5775708,5.276224 C29.4726477,3.73930092 24.8120323,4.46207015 19.1046477,7.03745477 C19.3954169,6.45591631 19.5366477,5.816224 19.5366477,5.18483938 C19.5366477,4.952224 19.5200323,4.71130092 19.4784938,4.47868554 C19.3455708,3.656224 18.9551092,2.86699323 18.3237246,2.24391631 C17.9831092,1.89499323 17.58434,1.62914707 17.1689554,1.42976246 L17.1855708,1.388224 L17.1855708,1.388224 L17.6258784,0.432839382 C17.69234,0.283300921 17.6258784,0.10053169 17.47634,0.025762459 C17.3268015,-0.0406990795 17.1440323,0.025762459 17.0692631,0.175300921 L16.5957246,1.20545477 C15.8064938,0.96453169 14.9508015,0.96453169 14.1615708,1.20545477 L13.6880323,0.175300921 C13.6215708,0.025762459 13.4388015,-0.0406990795 13.2809554,0.025762459 C13.1314169,0.0922239975 13.0649554,0.274993228 13.1314169,0.432839382 L13.5551092,1.35499323 L13.58834,1.42976246 C13.1729554,1.62914707 12.7741861,1.90330092 12.4335708,2.24391631 C11.6028015,3.07468554 11.2040323,4.17130092 11.2206477,5.25960861 C11.2289554,5.84945477 11.3618784,6.43930092 11.6277246,6.98760861 C10.1489554,6.32299323 1.94926306,2.93345477 0.29603229,5.24299323 C-1.19935233,7.35314707 3.39480152,11.0417625 4.62433998,12.0885317 L4.70741691,11.9971471 C4.92341691,11.7645317 4.90680152,11.3989932 4.68249383,11.1746855 C4.07603229,10.6097625 3.12895537,9.67099323 2.47264767,8.75714707 C1.60864767,7.55253169 1.5837246,6.84637784 1.99910921,6.45591631 C3.30341691,5.22637784 8.14680152,6.85468554 9.65049383,7.42791631 C11.0960323,7.98453169 12.6495708,8.68237784 14.2529554,9.52976246 C6.57664767,13.9826855 1.35941691,19.2996086 2.58895537,21.4346855 C3.36157075,22.772224 6.57664767,22.5977625 10.6972631,21.1439163 L10.5477246,20.9029932 C10.4064938,20.6703778 10.1406477,20.5623778 9.87480152,20.6454548 C7.00864767,21.5094548 5.23080152,21.9248394 4.61603229,21.0026855 C3.75203229,19.5156086 8.12187844,14.3814548 14.9009554,10.460224 L15.4077246,10.1694548 C15.5821861,10.2608394 15.74834,10.3605317 15.9228015,10.460224 C22.7101861,14.3731471 27.0717246,19.5073009 26.2077246,21.0026855 C25.5929554,21.9248394 23.8068015,21.5094548 20.9489554,20.6454548 C20.6914169,20.5623778 20.4172631,20.6703778 20.2760323,20.9029932 L20.1264938,21.1439163 C24.2554169,22.5977625 27.4621861,22.772224 28.2348015,21.4346855 C29.46434,19.2996086 24.2471092,13.9826855 16.5708015,9.52976246 C21.9791092,6.680224 26.8474169,5.40914707 28.6335708,6.32299323 C30.2452631,7.12883938 27.4289554,9.97007015 26.1578784,11.1746855 Z M11.8935708,5.71653169 C11.64434,4.17130092 12.4584938,2.62607015 13.8791092,1.96976246 C14.1366477,3.51499323 13.3141861,5.05191631 11.8935708,5.71653169 Z M18.8055708,5.71653169 C17.3849554,5.05191631 16.5708015,3.51499323 16.8200323,1.96976246 C18.23234,2.62607015 19.0548015,4.17130092 18.8055708,5.71653169 Z M20.0517246,14.4728394 C18.6394169,13.4426855 17.0692631,12.404224 15.3661861,11.4156086 C13.6714169,12.404224 12.0929554,13.4426855 10.6889554,14.4728394 C10.4064938,15.2786855 10.2818784,16.1509932 10.3151092,17.0066855 L20.4255708,17.0066855 C20.4504938,16.1426855 20.3258784,15.2786855 20.0517246,14.4728394 Z M13.2892631,22.6309932 C13.9206477,23.2956086 14.4191092,23.8854548 15.3661861,25.5968394 C16.3132631,23.8854548 16.8117246,23.2956086 17.4431092,22.6309932 L13.2892631,22.6309932 Z" id="Shape" fill="#000000" fill-rule="nonzero"></path>
                <path d="M11.8935708,5.71653169 C11.64434,4.17130092 12.4584938,2.62607015 13.8791092,1.96976246 C14.1366477,3.51499323 13.3141861,5.05191631 11.8935708,5.71653169 Z" id="Path" fill="#FFFFFF"></path>
                <path d="M4.8237246,11.7063778 C4.8237246,11.7063778 4.94833998,11.4073009 4.65757075,11.1414548 C3.38649383,9.93683938 0.570186136,7.09560861 2.17357075,6.28145477 C3.9597246,5.37591631 8.83633998,6.67191631 14.2446477,9.52145477 C11.5197246,11.0999163 9.65049383,12.404224 7.67326306,13.9993009 C5.49664767,12.3959163 5.10618614,12.0386855 4.8237246,11.7063778 Z" id="Path" fill="#FFFFFF"></path>
                <path d="M23.1837246,14.0325317 C21.25634,12.4125317 19.3040323,11.108224 16.5708015,9.52976246 C21.9791092,6.680224 26.8474169,5.40914707 28.6335708,6.32299323 C30.2369554,7.13714707 27.4206477,9.97837784 26.1495708,11.1829932 C25.9252631,11.3989932 25.9751092,11.4903778 25.9834169,11.7479163 C25.7092631,12.0719163 25.3686477,12.4291471 23.1837246,14.0325317 Z" id="Path" fill="#FFFFFF"></path>
                <path d="M9.91633998,13.8580702 C9.75018614,14.0906855 9.60064767,14.6223778 9.50926306,15.2869932 C9.50926306,15.2869932 9.50926306,15.2953009 9.50926306,15.3036086 C9.50926306,15.3119163 9.50926306,15.320224 9.50926306,15.3285317 C9.20187844,17.0316086 9.39295537,19.3660702 10.2652631,20.6371471 C10.1489554,20.5873009 10.0160323,20.5873009 9.88310921,20.6205317 C7.01695537,21.4845317 5.23910921,21.8999163 4.62433998,20.9777625 C3.99295537,19.9060702 6.11141691,16.9153009 9.91633998,13.8580702 Z" id="Path" fill="#FFFFFF"></path>
                <path d="M18.8055708,5.71653169 C17.3849554,5.05191631 16.5708015,3.51499323 16.8200323,1.96976246 C18.23234,2.62607015 19.0548015,4.17130092 18.8055708,5.71653169 Z" id="Path" fill="#FFFFFF"></path>
            </g>
        </g>
    </g>
</svg>