<?xml version="1.0" encoding="UTF-8"?>
<svg width="56px" height="56px" viewBox="0 0 56 56" version="1.1" xmlns="http://www.w3.org/2000/svg" xmlns:xlink="http://www.w3.org/1999/xlink">
    <title>hivemq-swarm</title>
    <g id="assets" stroke="none" stroke-width="1" fill="none" fill-rule="evenodd">
        <g id="05-icon-hivemq-swarm" transform="translate(4.4062, 1.0831)">
            <path d="M43.3171385,15.7573602 C42.8377846,16.1494833 42.2570769,16.4909294 41.5982769,16.7708986 C43.8588,20.1836986 45.1772308,24.271914 45.1772308,28.6625294 C45.1772308,40.5682833 35.4912923,50.2550525 23.5847077,50.2550525 C11.6781231,50.2550525 1.99301538,40.569114 1.99301538,28.6625294 C1.99301538,16.7559448 11.1090462,7.6515448 22.5238154,7.09659095 C22.3252615,6.48265249 22.1782154,5.82136018 22.0901538,5.12517557 C9.77981538,5.89945249 0,16.1602833 0,28.6625294 C0,41.1647756 10.5806769,52.2480679 23.5855385,52.2480679 C36.5904,52.2480679 47.1710769,41.667391 47.1710769,28.6625294 C47.1710769,23.9022217 45.7521231,19.4675756 43.3171385,15.7565294 L43.3171385,15.7573602 Z" id="Path" fill="#000000" fill-rule="nonzero"></path>
            <path d="M43.4168308,28.5894217 C43.4168308,39.5339756 34.5442154,48.406591 23.5996615,48.406591 C12.6551077,48.406591 3.78249231,39.5339756 3.78249231,28.5894217 C3.78249231,17.6448679 12.6551077,8.77225249 23.5996615,8.77225249 C26.0728615,8.77225249 29.1043385,8.72656018 31.2876,9.55400633 C33.5929846,10.4279756 35.0285538,12.2182833 36.8304923,13.835791 C40.8738462,17.4637602 43.4168308,22.7300063 43.4168308,28.5894217 Z" id="Path" fill="#FFC000"></path>
            <g id="Group" transform="translate(26.4922, 28.7031)" fill="#000000" fill-rule="nonzero">
                <ellipse id="Oval" transform="translate(1.3281, 17.1659) rotate(-15.61) translate(-1.3281, -17.1659)" cx="1.32806182" cy="17.1658869" rx="1.07833846" ry="1.07584615"></ellipse>
                <ellipse id="Oval" transform="translate(3.7771, 14.8686) rotate(-15.61) translate(-3.7771, -14.8686)" cx="3.77714263" cy="14.8686032" rx="1.20627692" ry="1.20378462"></ellipse>
                <ellipse id="Oval" transform="translate(6.3036, 11.0163) rotate(-15.61) translate(-6.3036, -11.0163)" cx="6.30360391" cy="11.0163309" rx="1.46381538" ry="1.45966154"></ellipse>
                <ellipse id="Oval" transform="translate(7.2394, 6.4774) rotate(-15.61) translate(-7.2394, -6.4774)" cx="7.23941633" cy="6.47742852" rx="1.59175385" ry="1.5876"></ellipse>
                <ellipse id="Oval" transform="translate(4.0493, 2.2737) rotate(-15.61) translate(-4.0493, -2.2737)" cx="4.04930498" cy="2.27368021" rx="1.84846154" ry="1.84430769"></ellipse>
            </g>
            <g id="Group" transform="translate(17.0718, 15.1676)" fill="#000000" fill-rule="nonzero">
                <ellipse id="Oval" transform="translate(1.8386, 1.434) rotate(-15.61) translate(-1.8386, -1.434)" cx="1.83857853" cy="1.4340417" rx="1.1664" ry="1.16307692"></ellipse>
                <ellipse id="Oval" transform="translate(1.8046, 5.9553) rotate(-15.61) translate(-1.8046, -5.9553)" cx="1.8046481" cy="5.95531291" rx="1.46547692" ry="1.46132308"></ellipse>
                <ellipse id="Oval" transform="translate(3.7288, 9.6934) rotate(-15.61) translate(-3.7288, -9.6934)" cx="3.72884708" cy="9.6934259" rx="1.61501538" ry="1.61086154"></ellipse>
                <ellipse id="Oval" transform="translate(8.1367, 12.4899) rotate(-15.61) translate(-8.1367, -12.4899)" cx="8.13671946" cy="12.4898812" rx="1.91409231" ry="1.90910769"></ellipse>
            </g>
            <g id="Group" transform="translate(22.0035, 30.5659)" fill="#000000" fill-rule="nonzero">
                <ellipse id="Oval" transform="translate(1.229, 15.686) rotate(-15.61) translate(-1.229, -15.686)" cx="1.22898872" cy="15.6859814" rx="1" ry="1"></ellipse>
                <ellipse id="Oval" transform="translate(3.8141, 13.267) rotate(-15.61) translate(-3.8141, -13.267)" cx="3.8140673" cy="13.2670097" rx="1.11655385" ry="1.11406154"></ellipse>
                <ellipse id="Oval" transform="translate(5.7604, 9.936) rotate(-15.61) translate(-5.7604, -9.936)" cx="5.76039878" cy="9.93595444" rx="1.35498462" ry="1.35166154"></ellipse>
                <ellipse id="Oval" transform="translate(6.3723, 5.5733) rotate(-15.61) translate(-6.3723, -5.5733)" cx="6.37234617" cy="5.57330945" rx="1.47378462" ry="1.46963077"></ellipse>
                <ellipse id="Oval" transform="translate(2.9799, 2.1048) rotate(-15.61) translate(-2.9799, -2.1048)" cx="2.97986915" cy="2.10477354" rx="1.71138462" ry="1.70723077"></ellipse>
            </g>
            <g id="Group" transform="translate(12.8813, 18.5078)" fill="#000000" fill-rule="nonzero">
                <ellipse id="Oval" transform="translate(2.6961, 1.2823) rotate(-15.61) translate(-2.6961, -1.2823)" cx="2.69611216" cy="1.28231398" rx="1.04261538" ry="1.04012308"></ellipse>
                <ellipse id="Oval" transform="translate(1.6134, 5.1006) rotate(-15.61) translate(-1.6134, -5.1006)" cx="1.61344409" cy="5.10061322" rx="1.31012308" ry="1.3068"></ellipse>
                <ellipse id="Oval" transform="translate(4.0817, 8.5581) rotate(-15.61) translate(-4.0817, -8.5581)" cx="4.08170471" cy="8.55810427" rx="1.44387692" ry="1.44055385"></ellipse>
                <ellipse id="Oval" transform="translate(7.8632, 11.3945) rotate(-15.61) translate(-7.8632, -11.3945)" cx="7.86317388" cy="11.394507" rx="1.71138462" ry="1.70723077"></ellipse>
            </g>
            <g id="Group" transform="translate(18.6611, 32.7735)" fill="#000000" fill-rule="nonzero">
                <ellipse id="Oval" transform="translate(1.0058, 12.7211) rotate(-15.61) translate(-1.0058, -12.7211)" cx="1.00582718" cy="12.7211145" rx="1" ry="1"></ellipse>
                <ellipse id="Oval" transform="translate(3.6568, 10.8033) rotate(-15.61) translate(-3.6568, -10.8033)" cx="3.65679346" cy="10.8032892" rx="1" ry="1"></ellipse>
                <ellipse id="Oval" transform="translate(4.8961, 8.1134) rotate(-15.61) translate(-4.8961, -8.1134)" cx="4.89605084" cy="8.11344245" rx="1.10907692" ry="1.10658462"></ellipse>
                <ellipse id="Oval" transform="translate(5.3967, 4.5406) rotate(-15.61) translate(-5.3967, -4.5406)" cx="5.39673939" cy="4.5405888" rx="1.20627692" ry="1.20295385"></ellipse>
                <ellipse id="Oval" transform="translate(2.5224, 1.7227) rotate(-15.61) translate(-2.5224, -1.7227)" cx="2.5223965" cy="1.72271855" rx="1.40067692" ry="1.39735385"></ellipse>
            </g>
            <g id="Group" transform="translate(11.8367, 25.9084)" fill="#000000" fill-rule="nonzero">
                <ellipse id="Oval" transform="translate(1.3209, 1.3192) rotate(-15.61) translate(-1.3209, -1.3192)" cx="1.32089608" cy="1.31916635" rx="1.07252308" ry="1.07003077"></ellipse>
                <ellipse id="Oval" transform="translate(2.8705, 4.2924) rotate(-15.61) translate(-2.8705, -4.2924)" cx="2.87047959" cy="4.2923837" rx="1.18218462" ry="1.17886154"></ellipse>
                <ellipse id="Oval" transform="translate(5.8972, 6.651) rotate(-15.61) translate(-5.8972, -6.651)" cx="5.89722254" cy="6.65096648" rx="1.40067692" ry="1.39735385"></ellipse>
            </g>
            <ellipse id="Oval" fill="#000000" fill-rule="nonzero" transform="translate(22.2096, 20.661) rotate(-15.61) translate(-22.2096, -20.661)" cx="22.2096379" cy="20.6610119" rx="1" ry="1"></ellipse>
            <g id="Group" transform="translate(18.957, 0)">
                <path d="M16.4229509,8.85865249 C15.9261509,7.83016018 16.1762124,6.5823448 17.0285817,5.82468326 C17.5253817,6.84985249 17.2753201,8.10099095 16.4229509,8.85865249 Z" id="Path" fill="#FFFFFF"></path>
                <path d="M5.76252013,12.4384371 C5.53987398,12.9742833 5.41276629,13.547514 5.40362783,14.1265602 L9.56661244,17.529391 C10.1340278,17.4064371 10.6682124,17.1663448 11.1492278,16.841514 L5.76252013,12.4384371 L5.76252013,12.4384371 Z" id="Path" fill="#000000" fill-rule="nonzero"></path>
                <path d="M5.30227398,18.4972371 C6.62901244,17.9688679 7.18064321,17.8658525 7.84442783,17.7827756 L5.49750475,15.8645294 C5.54984321,16.5324679 5.55648936,17.0924063 5.30227398,18.4980679 L5.30227398,18.4972371 Z" id="Path" fill="#000000" fill-rule="nonzero"></path>
                <path d="M13.0832586,14.375791 C12.7634124,13.1412679 12.3513509,11.8286525 11.8512278,10.4861294 C10.4355971,10.2626525 9.06732013,10.1197602 7.79541244,10.0532986 C7.26538167,10.379791 6.79433552,10.8126217 6.41467398,11.3102525 L12.1237201,15.977514 C12.5357817,15.5064679 12.8664278,14.958991 13.0824278,14.375791 L13.0832586,14.375791 Z" id="Path" fill="#000000" fill-rule="nonzero"></path>
                <path d="M12.5216586,5.66766787 C13.6265817,5.94846787 14.8012894,5.45665249 15.3736894,4.47052941 C14.2679355,4.18640633 13.0940586,4.6815448 12.5216586,5.66766787 Z" id="Path"></path>
                <path d="M18.0545817,15.3328371 C17.8227971,15.3494525 17.646674,15.5496679 17.6599663,15.7822833 L17.6641201,15.869514 C20.8750432,15.8005602 23.0342124,15.4815448 23.2718124,14.0326833 C23.3590432,12.6519448 20.3907047,10.9148063 15.9784894,9.72929864 C16.4104894,9.53406787 16.7859971,9.23997557 17.0792586,8.88108326 C17.1880894,8.74816018 17.2852894,8.60692941 17.3691971,8.45656018 C17.6707663,7.93068326 17.8169817,7.3084371 17.7505201,6.66126787 C17.7164586,6.30736018 17.6184278,5.97256018 17.4730432,5.66766787 L17.5046124,5.65105249 L17.506274,5.65271403 L18.1941509,5.31708326 C18.3038124,5.26308326 18.3503355,5.13016018 18.2963355,5.02049864 C18.2423355,4.9108371 18.1094124,4.86431403 17.9997509,4.91831403 L17.2537201,5.28136018 C16.9180894,4.77957557 16.4379047,4.38662172 15.8796278,4.15816018 L16.0873201,3.35480633 C16.1180586,3.23600633 16.0466124,3.1155448 15.9286432,3.08397557 C15.8098432,3.0532371 15.6893817,3.12468326 15.6578124,3.24265249 L15.4725509,3.95960633 L15.4584278,4.01692941 C15.1294432,3.9363448 14.7838432,3.90892941 14.428274,3.94382172 C13.5767355,4.02939095 12.8431663,4.46222172 12.3513509,5.08945249 C12.0838432,5.42757557 11.8877817,5.82136018 11.7831047,6.2500371 C11.2539047,5.19496018 8.19085859,-0.509101358 6.18870475,0.036714027 C4.37098167,0.535175566 5.26488936,4.74136018 5.47341244,5.90277557 L5.55898167,5.88948326 C5.78993552,5.85625249 5.95110475,5.64440633 5.92285859,5.41511403 C5.84476629,4.81529864 5.74258167,3.84911403 5.79159706,3.02665249 C5.85639706,1.94831403 6.17042783,1.53791403 6.58913552,1.5088371 C7.89261244,1.41911403 9.87981244,4.57271403 10.4638432,5.58957557 C11.0229509,6.56739095 11.577074,7.68477557 12.0929817,8.90268326 C5.70104321,7.87169864 0.300212441,8.46652941 0.0119355176,10.239391 C-0.169172175,11.3509602 1.72498167,12.7350217 4.72738167,13.8191756 L4.75562783,13.612314 C4.78387398,13.4170833 4.68002783,13.2326525 4.49559706,13.1578833 C2.47848936,12.3262833 1.2813509,11.7364371 1.35861244,10.9314217 C1.56048936,9.6927448 6.39556629,8.80797557 12.0331663,9.72929864 L12.4551971,9.79908326 C12.5083663,9.93200633 12.559874,10.066591 12.6088894,10.2003448 C14.6326432,15.542191 14.7281817,20.4570217 13.553474,20.9014833 C12.7800278,21.1374217 11.9642124,20.081514 10.7479663,18.2696063 C10.637474,18.1042833 10.4364278,18.0386525 10.2503355,18.105114 L10.0534432,18.1740679 C11.7124894,20.9014833 13.445474,22.4824371 14.4997201,22.0836679 C16.177874,21.4472986 15.6893817,16.0364986 13.4072586,9.97769864 C17.7746124,10.8632986 21.1109817,12.3960679 21.6999971,13.7327756 C22.2291971,14.9348986 19.3281509,15.2389602 18.0545817,15.3328371 L18.0545817,15.3328371 Z M12.5216586,5.66766787 C13.0948894,4.6815448 14.2687663,4.18640633 15.3736894,4.47052941 C14.8004586,5.45665249 13.6265817,5.94846787 12.5216586,5.66766787 Z M16.4246124,8.85782172 C15.9278124,7.82932941 16.177874,6.58151403 17.0302432,5.82385249 C17.5270432,6.84902172 17.2769817,8.10016018 16.4246124,8.85782172 Z" id="Shape" fill="#000000" fill-rule="nonzero"></path>
                <path d="M12.5216586,5.66766787 C13.0948894,4.6815448 14.2687663,4.18640633 15.3745201,4.47052941 C14.8012894,5.45665249 13.6274124,5.94846787 12.5216586,5.66766787 Z" id="Path" fill="#FFFFFF"></path>
                <path d="M5.76002783,5.7856371 C5.76002783,5.7856371 5.96522783,5.67431403 5.92867398,5.39102172 C5.76501244,4.12492941 5.48836629,1.22056018 6.77107398,1.50052941 C8.19916629,1.81206787 10.3558432,4.79868326 12.0921509,8.90268326 C9.82332013,8.53631403 8.16427398,8.4075448 6.31747398,8.39757557 C5.82233552,6.48597557 5.76667398,6.10465249 5.75919706,5.78646787 L5.76002783,5.7856371 Z" id="Path" fill="#FFFFFF"></path>
                <path d="M13.542674,20.8906833 C12.7692278,21.1266217 11.9534124,20.070714 10.7371663,18.2588063 C10.6815047,18.177391 10.6059047,18.1184063 10.5178432,18.0918217 C11.5961817,17.7794525 12.7825201,16.5482525 13.3964586,15.4458217 C13.3972894,15.4408371 13.402274,15.4350217 13.4064278,15.4300371 C13.4072586,15.4250525 13.4089201,15.423391 13.4105817,15.4217294 C13.6664586,15.002191 13.8276278,14.6374833 13.8409201,14.4264679 C14.5761509,17.9098833 14.3942124,20.574991 13.5435047,20.8906833 L13.542674,20.8906833 Z" id="Path" fill="#FFFFFF"></path>
                <path d="M15.0588278,15.574591 C14.7182124,13.7726525 14.2164278,12.129391 13.4055971,9.97936018 C17.7729509,10.8649602 21.1093201,12.3977294 21.6983355,13.7344371 C22.2275355,14.9365602 19.3264894,15.2406217 18.0529201,15.3344986 C17.8269509,15.3502833 17.8128278,15.4308679 17.6998432,15.5787448 C17.3858124,15.6344063 17.0302432,15.6800986 15.0588278,15.5754217 L15.0588278,15.574591 Z" id="Path" fill="#FFFFFF"></path>
                <path d="M7.64338167,9.35046787 C7.43984321,9.40529864 7.1133509,9.63625249 6.75362783,9.97022172 C6.75196629,9.97188326 6.75030475,9.9735448 6.7461509,9.9760371 C6.74199706,9.98102172 6.73701244,9.9868371 6.73285859,9.98932941 C5.7741509,10.8101294 4.80381244,12.2174525 4.71242783,13.3364986 C4.66839706,13.2550833 4.59612013,13.1936063 4.50473552,13.1545602 C2.48762783,12.3229602 1.29048936,11.733114 1.3677509,10.9280986 C1.5081509,10.0308679 4.08353552,9.32305249 7.64421244,9.35046787 L7.64338167,9.35046787 Z" id="Path" fill="#FFFFFF"></path>
            </g>
        </g>
    </g>
</svg>