<svg width="168" height="36" viewBox="0 0 168 36" fill="none" xmlns="http://www.w3.org/2000/svg">
<g clip-path="url(#clip0_354_98587)">
<path d="M63.1473 7.15574V27.3985C63.1473 27.8605 62.7585 28.2349 62.2797 28.2349L57.7521 28.1953C57.7521 22.9233 57.7509 20.2853 57.7485 20.2813C57.7485 19.8193 57.3597 19.4449 56.8809 19.4449H49.6473C49.1685 19.4449 48.7797 19.8193 48.7797 20.2813L48.7545 28.1953C44.4417 28.1953 44.2485 28.2349 44.2485 28.2349C43.7697 28.2349 43.3809 27.8605 43.3809 27.3985V7.15574C43.3809 6.69374 43.7697 6.31934 44.2485 6.31934L48.7545 6.34574C48.7545 13.9921 48.7797 14.1565 48.7797 14.1565C48.7797 14.6185 49.1685 14.9929 49.6473 14.9929H56.8809C57.3597 14.9929 57.7485 14.6185 57.7485 14.1565L57.7365 6.33494C62.7909 6.33494 62.2797 6.31934 62.2797 6.31934C62.7585 6.31934 63.1473 6.69374 63.1473 7.15574Z" fill="white"/>
<path d="M68.7132 8.85742H71.958C72.3816 8.85742 72.726 9.18862 72.726 9.59782V27.5246C72.726 27.9338 72.3828 28.265 71.958 28.265H68.7132C68.2896 28.265 67.9452 27.9338 67.9452 27.5246V9.59782C67.9452 9.18862 68.2884 8.85742 68.7132 8.85742Z" fill="white"/>
<path d="M95.4543 9.83876L88.9467 27.996C88.8399 28.2948 88.5483 28.494 88.2207 28.494H83.2587C82.9311 28.494 82.6407 28.2948 82.5327 27.996L75.9999 9.83876C75.8271 9.35756 76.1979 8.85596 76.7259 8.85596H80.0079C80.3379 8.85596 80.6307 9.05876 80.7363 9.36116L85.0095 21.636C85.2435 22.3092 86.2323 22.3092 86.4663 21.636L90.7167 9.36356C90.8211 9.06116 91.1151 8.85836 91.4451 8.85836H94.7283C95.2563 8.85836 95.6259 9.35996 95.4543 9.83996V9.83876Z" fill="white"/>
<path d="M112.166 25.3178V27.5246C112.166 27.9338 111.823 28.265 111.398 28.265H99.4944C99.0708 28.265 98.7264 27.9338 98.7264 27.5246V9.59782C98.7264 9.18862 99.0696 8.85742 99.4944 8.85742H111.265C111.689 8.85742 112.033 9.18862 112.033 9.59782V11.8046C112.033 12.2138 111.69 12.545 111.265 12.545H104.275C103.852 12.545 103.507 12.8762 103.507 13.2854C103.507 13.2854 103.498 13.2746 103.498 16.673C103.498 16.673 103.4 16.6862 110.658 16.6862L110.664 20.3114C103.17 20.3114 103.481 20.339 103.481 20.339C103.481 23.9006 103.507 23.8394 103.507 23.8394C103.507 24.2486 103.85 24.5798 104.275 24.5798H111.398C111.822 24.5798 112.166 24.911 112.166 25.3202V25.3178Z" fill="white"/>
<path d="M141.048 7.15574V27.3985C141.048 27.8605 140.659 28.2349 140.18 28.2349H136.517C136.038 28.2349 135.649 27.8605 135.649 27.3985L135.598 14.5381C135.598 13.7185 130.748 20.6173 130.748 20.6173C130.586 20.8429 130.32 20.9785 130.034 20.9785H128.249C127.962 20.9785 127.693 20.8417 127.532 20.6125C127.532 20.6125 122.726 13.6693 122.726 14.4913L122.752 27.3985C122.752 27.8605 122.363 28.2349 121.884 28.2349H118.219C117.74 28.2349 117.352 27.8605 117.352 27.3985V7.15574C117.352 6.69374 117.74 6.31934 118.219 6.31934H123.126C123.415 6.31934 123.686 6.45854 123.847 6.69134L128.477 13.3741C128.82 13.8697 129.576 13.8697 129.919 13.3741L134.549 6.69134C134.71 6.45974 134.98 6.31934 135.27 6.31934H140.177C140.656 6.31934 141.044 6.69374 141.044 7.15574H141.048Z" fill="white"/>
<path d="M166.885 22.4232C166.343 23.712 165.58 24.8172 164.598 25.7424C164.27 26.0508 164.255 26.5548 164.558 26.8848L167.551 30.0444C162.083 30.0444 161.782 30.084 161.782 30.084C161.528 30.084 161.287 29.9772 161.123 29.7912L160.141 28.6848C159.928 28.4436 159.593 28.3476 159.272 28.4172C158.332 28.6224 157.304 28.7244 156.193 28.7244C153.674 28.7244 151.535 28.2288 149.776 27.2352C148.016 26.2428 146.696 24.8844 145.817 23.1588C144.937 21.4344 144.498 19.482 144.498 17.304C144.498 15.126 144.937 13.2372 145.817 11.5224C146.696 9.80757 148.016 8.44317 149.776 7.43157C151.535 6.41997 153.674 5.91357 156.193 5.91357C158.712 5.91357 160.792 6.41997 162.552 7.43157C164.311 8.44317 165.636 9.81237 166.525 11.5368C167.414 13.2624 167.86 15.1848 167.86 17.304C167.86 19.1736 167.534 20.88 166.885 22.4208V22.4232ZM151.606 22.4088C152.665 23.6904 154.195 24.3312 156.194 24.3312H156.254L154.852 22.764C154.367 22.2228 154.766 21.3816 155.508 21.3816H159.217C159.468 21.3816 159.707 21.486 159.871 21.6696C160.26 22.1016 160.847 22.47 161.14 21.9732C161.384 21.558 161.726 20.6772 161.892 20.1828C162.192 19.2864 162.342 18.2988 162.342 17.2188C162.342 15.8892 162.102 14.7036 161.622 13.6632C161.142 12.6228 160.438 11.8032 159.508 11.2056C158.578 10.608 157.472 10.3092 156.193 10.3092C154.214 10.3092 152.689 10.9548 151.62 12.246C150.55 13.5372 150.016 15.2232 150.016 17.3052C150.016 19.3872 150.545 21.126 151.606 22.4076V22.4088Z" fill="white"/>
<path d="M18.0102 34.5584C27.1878 34.5584 34.6278 27.1185 34.6278 17.9408C34.6278 8.76319 27.1878 1.32324 18.0102 1.32324C8.83253 1.32324 1.39258 8.76319 1.39258 17.9408C1.39258 27.1185 8.83253 34.5584 18.0102 34.5584Z" fill="#FFC000"/>
<path d="M18 36C8.0748 36 0 27.9252 0 18C0 8.0748 8.0748 0 18 0C27.9252 0 36 8.0748 36 18C36 27.9252 27.9252 36 18 36ZM18 1.5216C8.9136 1.5216 1.5216 8.9136 1.5216 18C1.5216 27.0864 8.9136 34.4784 18 34.4784C27.0864 34.4784 34.4784 27.0864 34.4784 18C34.4784 8.9136 27.0864 1.5216 18 1.5216Z" fill="black"/>
<path fill-rule="evenodd" clip-rule="evenodd" d="M20.7089 12.5629C19.6181 12.0553 18.9905 10.8709 19.1801 9.68408C20.2685 10.1893 20.8985 11.3761 20.7089 12.5629Z" fill="white"/>
<path d="M18.064 27.8377C18.7936 26.5213 19.1752 26.0701 19.66 25.5601H16.4668C16.9552 26.0701 17.3332 26.5225 18.0628 27.8377H18.064Z" fill="black"/>
<path d="M26.3563 16.7544C26.1775 16.9224 26.1679 17.2032 26.3347 17.3844L26.3959 17.4528C28.9687 15.2556 30.5167 13.5564 29.7451 12.216C28.8955 11.0316 25.3171 11.5932 20.9275 13.5684C21.1495 13.122 21.2599 12.6312 21.2599 12.1428C21.2599 11.9616 21.2455 11.7816 21.2131 11.6028C21.1075 10.9728 20.8123 10.368 20.3275 9.88442C20.0635 9.61802 19.7611 9.41042 19.4383 9.25922L19.4527 9.22562H19.4551L19.7923 8.49362C19.8463 8.37602 19.7947 8.23682 19.6771 8.18402C19.5595 8.13002 19.4203 8.18162 19.3675 8.29922L19.0015 9.09242C18.3931 8.90642 17.7391 8.90642 17.1319 9.09242L16.7659 8.29922C16.7119 8.18162 16.5727 8.13122 16.4563 8.18402C16.3387 8.23802 16.2883 8.37722 16.3411 8.49362L16.6687 9.20162L16.6951 9.25802C16.3723 9.41162 16.0723 9.61922 15.8059 9.88562C15.1687 10.5228 14.8591 11.3652 14.8759 12.2052C14.8831 12.6588 14.9863 13.1112 15.1855 13.5312C14.0503 13.0236 7.74908 10.4136 6.47948 12.1932C5.32988 13.812 8.86268 16.6464 9.80708 17.454L9.86828 17.3856C10.0339 17.2044 10.0243 16.9236 9.84908 16.7556C9.38468 16.3188 8.65748 15.5988 8.14988 14.8956C7.48388 13.9728 7.46588 13.428 7.78868 13.1256C8.79188 12.1836 12.5155 13.4304 13.6699 13.8708C14.7787 14.2956 15.9739 14.838 17.2075 15.4872C11.3071 18.9072 7.29788 22.9944 8.24588 24.6324C8.83868 25.6596 11.3071 25.5264 14.4787 24.408L14.3635 24.2196C14.2555 24.042 14.0491 23.9604 13.8487 24.0216C11.6491 24.6876 10.2799 25.0056 9.80588 24.2976C9.14468 23.1528 12.4987 19.2072 17.7103 16.2L18.1003 15.9756C18.2323 16.0488 18.3643 16.1244 18.4939 16.2C23.7055 19.2072 27.0607 23.1528 26.3983 24.2976C25.9243 25.0056 24.5551 24.6876 22.3555 24.0216C22.1551 23.9604 21.9475 24.0408 21.8407 24.2196L21.7255 24.408C24.8971 25.5264 27.3643 25.6608 27.9583 24.6324C28.9027 22.9944 24.8971 18.9072 18.9967 15.4872C23.1487 13.2972 26.8915 12.3228 28.2631 13.0212C29.4955 13.6488 27.3331 15.8316 26.3563 16.7568V16.7544ZM15.4003 12.5604C15.2095 11.3736 15.8371 10.188 16.9291 9.68162C17.1199 10.8684 16.4899 12.0516 15.4003 12.5604ZM20.7103 12.5604C19.6195 12.0528 18.9919 10.8684 19.1815 9.68162C20.2699 10.1868 20.8999 11.3736 20.7103 12.5604Z" fill="black"/>
<path d="M14.4004 22.5889C14.5756 23.1745 14.854 23.7265 15.2332 24.2053H20.8972C21.2776 23.7265 21.5536 23.1757 21.73 22.5889H14.4016H14.4004Z" fill="black"/>
<path d="M21.662 19.2888C20.5784 18.4956 19.3676 17.7 18.0632 16.938C16.76 17.7 15.5492 18.4956 14.4668 19.2888C14.252 19.9092 14.1572 20.5752 14.1788 21.234H21.9464C21.968 20.5752 21.8732 19.908 21.6608 19.2888H21.662Z" fill="black"/>
<path fill-rule="evenodd" clip-rule="evenodd" d="M15.3992 12.5604C15.2084 11.3736 15.836 10.188 16.928 9.68164C17.1188 10.8684 16.4888 12.0516 15.3992 12.5604Z" fill="white"/>
<path fill-rule="evenodd" clip-rule="evenodd" d="M9.9632 17.1646C9.9632 17.1646 10.0568 16.9366 9.8372 16.7302C8.8592 15.8062 6.698 13.6222 7.9304 12.9946C9.302 12.2962 13.0532 13.2946 17.2052 15.4846C15.1112 16.6978 13.6724 17.6998 12.158 18.9226C10.4804 17.6938 10.1804 17.4202 9.962 17.1646H9.9632Z" fill="white"/>
<path fill-rule="evenodd" clip-rule="evenodd" d="M26.3859 24.3192C25.9119 25.0272 24.5427 24.7092 22.3431 24.0432C22.2435 24.0144 22.1427 24.0168 22.0527 24.0528C22.7235 23.0784 22.8711 21.2844 22.6359 19.9764C22.6335 19.9716 22.6335 19.9644 22.6335 19.9572C22.6311 19.9524 22.6311 19.95 22.6311 19.9476C22.5603 19.4352 22.4475 19.0296 22.3191 18.8496C25.2411 21.2004 26.8695 23.4948 26.3859 24.3204V24.3192Z" fill="white"/>
<path fill-rule="evenodd" clip-rule="evenodd" d="M24.0725 18.9489C22.5929 17.7069 21.0881 16.7001 18.9941 15.4869C23.1461 13.2969 26.8889 12.3225 28.2605 13.0209C29.4929 13.6485 27.3305 15.8313 26.3537 16.7565C26.1809 16.9197 26.2229 16.9953 26.2277 17.1909C26.0093 17.4453 25.7501 17.7201 24.0713 18.9489H24.0725Z" fill="white"/>
<path fill-rule="evenodd" clip-rule="evenodd" d="M13.8756 18.8171C13.746 18.9983 13.6344 19.4027 13.5636 19.9151C13.5636 19.9175 13.5636 19.9199 13.5612 19.9247C13.5612 19.9319 13.5612 19.9391 13.5588 19.9439C13.3248 21.2519 13.4712 23.0471 14.142 24.0203C14.052 23.9831 13.9512 23.9807 13.8516 24.0107C11.652 24.6767 10.2828 24.9947 9.80881 24.2867C9.32521 23.4611 10.9536 21.1667 13.8756 18.8159V18.8171Z" fill="white"/>
</g>
<defs>
<clipPath id="clip0_354_98587">
<rect width="167.86" height="36" fill="white"/>
</clipPath>
</defs>
</svg>
