<?xml version="1.0" encoding="UTF-8"?>
<svg width="56px" height="56px" viewBox="0 0 56 56" version="1.1" xmlns="http://www.w3.org/2000/svg" xmlns:xlink="http://www.w3.org/1999/xlink">
    <title>hivemq-bee-cloud-neg</title>
    <g id="assets" stroke="none" stroke-width="1" fill="none" fill-rule="evenodd">
        <g id="01-hivemq-bee-sw" transform="translate(3.3262, 2.6615)">
            <g id="05-hivemq-cloud-icon" transform="translate(1.3292, 1.9108)">
                <path d="M23.3296615,46.6626462 C10.4660308,46.6626462 0,36.1949538 0,23.3329846 C0,10.4710154 10.4660308,0 23.3296615,0 C36.1932923,0 46.6593231,10.4676923 46.6593231,23.3329846 C46.6593231,36.1982769 36.1932923,46.6626462 23.3296615,46.6626462 Z M23.3296615,1.97473846 C11.5526769,1.97473846 1.97141538,11.556 1.97141538,23.3329846 C1.97141538,35.1099692 11.5526769,44.6904 23.3296615,44.6904 C35.1066462,44.6904 44.6879077,35.1099692 44.6879077,23.3329846 C44.6879077,11.556 35.1066462,1.97473846 23.3296615,1.97473846 Z" id="Shape" fill="#000000" fill-rule="nonzero"></path>
                <circle id="Oval" fill="#FFC000" fill-rule="nonzero" cx="23.3446154" cy="23.2565538" r="21.5376923"></circle>
                <path d="M19.8603692,12.5736923 C19.6173927,11.0334404 20.4221399,9.51810412 21.8342769,8.85683077 C22.0752341,10.3967439 21.2710948,11.9109356 19.8603692,12.5736923 L19.8603692,12.5736923 Z" id="Path" fill="#FFFFFF"></path>
                <path d="M12.8387077,18.5211692 C12.9047217,18.3184564 12.8405454,18.0959787 12.6767077,17.9595692 C11.4139385,16.7665846 8.62255385,13.9461231 10.2143077,13.1361231 C11.9863385,12.2339077 16.8305538,13.5232615 22.1931692,16.3512 C19.4881846,17.9180308 17.6305846,19.2115385 15.6757846,20.7908308 C13.5083077,19.2040615 13.1211692,18.8501538 12.8387077,18.5211692 Z" id="Path" fill="#FFFFFF"></path>
                <path d="M34.0465846,27.7593231 C33.4351385,28.6731692 31.6664308,28.2636 28.8260308,27.4029231 C28.7030072,27.3648391 28.5707511,27.3692281 28.4505231,27.4153846 C29.3178462,26.1576 29.5064308,23.8430769 29.2040308,22.1508 C29.202187,22.1423144 29.202187,22.1335318 29.2040308,22.1250462 C29.2030742,22.1209474 29.2030742,22.1166834 29.2040308,22.1125846 C29.1118154,21.4479692 28.9672615,20.9270769 28.8002769,20.6936308 C32.5711385,23.7300923 34.6738154,26.6934462 34.0465846,27.7593231 Z" id="Path" fill="#FFFFFF"></path>
                <path d="M31.0632923,20.8248923 C29.1525231,19.2198462 27.2093538,17.9172 24.5043692,16.3536923 C29.8669846,13.5290769 34.7004,12.2679692 36.4724308,13.1693538 C38.0650154,13.9801846 35.2711385,16.7981538 34.0100308,17.9936308 C33.7865538,18.2046462 33.8438769,18.3018462 33.8480308,18.5544 C33.5655692,18.8833846 33.2299385,19.2381231 31.0632923,20.8248923 Z" id="Path" fill="#FFFFFF"></path>
                <path d="M17.8931077,20.6545846 C17.7269538,20.8880308 17.5807385,21.4114154 17.4893538,22.0735385 C17.4904467,22.0776204 17.4904467,22.081918 17.4893538,22.086 C17.4912093,22.0942041 17.4912093,22.102719 17.4893538,22.1109231 C17.1869538,23.8007077 17.3763692,26.1185538 18.2428615,27.3763385 C18.123097,27.3293251 17.9908083,27.3249253 17.8681846,27.3638769 C15.0269538,28.2245538 13.2582462,28.6341231 12.6468,27.7202769 C12.0154154,26.6544 14.1189231,23.6910462 17.8931077,20.6545846 Z" id="Path" fill="#FFFFFF"></path>
                <path d="M23.3030769,32.3044615 C24.2435077,30.6055385 24.7419692,30.0215077 25.3650462,29.3627077 L21.2411077,29.3627077 C21.8716615,30.0215077 22.3601538,30.6055385 23.3030769,32.3044615 Z" id="Path" fill="#000000" fill-rule="nonzero"></path>
                <path d="M18.5701846,25.5262154 C18.7953931,26.2837153 19.1618325,26.9917888 19.6501846,27.6131077 L26.9609538,27.6131077 C27.4488136,26.992215 27.8136804,26.2839109 28.0359692,25.5262154 L18.5701846,25.5262154 Z" id="Path" fill="#000000" fill-rule="nonzero"></path>
                <path d="M27.9504,21.2676923 C26.4542437,20.1767225 24.903097,19.1632364 23.3030769,18.2312308 C21.7035203,19.1622513 20.1534298,20.175772 18.6590769,21.2676923 C18.3828544,22.0754049 18.2567169,22.9268336 18.2868923,23.7799385 L28.3192615,23.7799385 C28.3489108,22.9271257 28.2239423,22.0759888 27.9504,21.2676923 L27.9504,21.2676923 Z" id="Path" fill="#000000" fill-rule="nonzero"></path>
                <path d="M34.0100308,17.9903077 C33.7808902,18.2085719 33.7683382,18.5699958 33.9817846,18.8036308 L34.0607077,18.8925231 C37.3837846,16.0546154 39.3826154,13.8605538 38.3865231,12.1292308 C37.2890769,10.6006154 32.6666769,11.3250462 26.9983385,13.8738462 C27.2811355,13.3011028 27.4278398,12.6707862 27.4270154,12.0320308 C27.4274265,11.7986685 27.4074116,11.5657181 27.3672,11.3358462 C27.2279545,10.4941225 26.8274512,9.7175298 26.2224,9.11603077 C25.8900761,8.78131751 25.5014416,8.50769855 25.0742769,8.30769231 L25.0925538,8.26366154 L25.0925538,8.26366154 L25.5278769,7.31824615 C25.5864126,7.16896155 25.5178874,6.99997394 25.3719096,6.93362039 C25.2259318,6.86726683 25.0535547,6.92675343 24.9795692,7.06901538 L24.5060308,8.09335385 C23.7187816,7.85417123 22.8782338,7.85417123 22.0909846,8.09335385 L21.6182769,7.06901538 C21.577555,6.96516159 21.4828295,6.89227019 21.3720093,6.87951217 C21.2611891,6.86675415 21.1523781,6.9162137 21.0891222,7.00809721 C21.0258664,7.09998071 21.0184993,7.21927785 21.0699692,7.31824615 L21.492,8.23209231 L21.5268923,8.3052 C19.4701703,9.29502194 18.5995802,11.7605184 19.5787385,13.8223385 C18.1124308,13.1668615 9.97504615,9.79643077 8.33510769,12.0943385 C6.85052308,14.1845538 11.4089538,17.8457538 12.6326769,18.8892 L12.7157538,18.8003077 C12.9300816,18.5675613 12.9190073,18.2061712 12.6908308,17.9869846 C12.0918462,17.4228923 11.1522462,16.4916 10.4959385,15.5844 C9.63526154,14.3930769 9.61366154,13.6902462 10.0298769,13.2989538 C11.3250462,12.0818769 16.1335385,13.6927385 17.6247692,14.2601538 C19.1874809,14.8658275 20.7131952,15.5629402 22.194,16.3478769 C14.5725231,20.7692308 9.396,26.0462769 10.6188923,28.1630769 C11.3848615,29.4923077 14.5725231,29.3170154 18.6682154,27.8731385 L18.5203385,27.6305538 C18.3848706,27.4015442 18.1097896,27.295638 17.8557231,27.3746769 C15.0153231,28.2361846 13.2466154,28.6457538 12.6343385,27.7310769 C11.7819692,26.2523077 16.1111077,21.1563692 22.8428308,17.2716923 L23.3471077,16.9817538 C23.5174154,17.0764615 23.6877231,17.1736615 23.8547077,17.2716923 C30.5839385,21.1563692 34.9180615,26.2506462 34.0640308,27.7294154 C33.4517538,28.6432615 31.6830462,28.2345231 28.8426462,27.3730154 C28.5885796,27.2939765 28.3134986,27.3998827 28.1780308,27.6288923 L28.0301538,27.8714769 C32.1258462,29.3153538 35.3126769,29.4889846 36.0794769,28.1614154 C37.2990462,26.0462769 32.1258462,20.7675692 24.5052,16.3512 C29.8678154,13.5265846 34.7012308,12.2646462 36.4732615,13.1668615 C38.0650154,13.9768615 35.2711385,16.7956615 34.0100308,17.9903077 Z M19.8603692,12.5736923 C19.6173927,11.0334404 20.4221399,9.51810412 21.8342769,8.85683077 C22.0752341,10.3967439 21.2710948,11.9109356 19.8603692,12.5736923 Z M26.7175385,12.5736923 C25.3065576,11.9123764 24.5016048,10.3989434 24.7419692,8.85932308 C26.1540801,9.52121209 26.9592015,11.0363164 26.7175385,12.5770154 L26.7175385,12.5736923 Z" id="Shape" fill="#000000" fill-rule="nonzero"></path>
                <path d="M26.7175385,12.5770154 C25.3052259,11.9153384 24.5000176,10.4000705 24.7419692,8.85932308 C26.1540801,9.52121209 26.9592015,11.0363164 26.7175385,12.5770154 L26.7175385,12.5770154 Z" id="Path" fill="#FFFFFF"></path>
                <path d="M23.1709846,49.3476923 C19.6692923,49.3476923 16.1875385,48.7661538 13.7317846,48.1671692 L13.7317846,48.1671692 C9.38686154,47.1071077 6.87212308,44.7319385 6.83141538,42.2047385 C6.83141538,39.8785846 8.60344615,38.6939077 11.8650462,38.3998154 C12.42,36.4674462 14.8026462,34.6123385 17.604,34.5732923 C18.6216923,34.5591692 19.5754154,35.0368615 20.0630769,35.3583692 C21.9165231,33.8364 24.0333231,32.4922154 26.7673846,32.4922154 C31.3848,32.4922154 35.4073846,35.0160923 36.2863385,38.4131077 C38.7819692,39.2837538 40.1942769,40.5481846 40.1942769,42.4788923 C40.1942769,43.7881846 39.3751385,45.3483692 37.8240923,46.3835077 C36.6294462,47.1843692 34.2019385,48.0566769 32.6110154,48.3923077 C30.0588923,48.9323077 27.0174462,49.3476923 23.1709846,49.3476923 Z" id="Path" fill="#000000" fill-rule="nonzero"></path>
                <path d="M22.6542462,48.0782769 C18.7645846,48.0782769 15.1706769,47.3305846 13.8057231,47.0049231 C10.1827385,46.1484 7.82003077,44.2550769 7.78596923,42.1814769 C7.78596923,41.5276615 7.78596923,39.7597846 11.9074154,39.3992308 L12.4266462,39.3543692 L12.5703692,38.8692 C12.9924,37.4444308 14.9388923,35.8892308 17.3398154,35.8551692 L17.3705538,35.8551692 C18.0667385,35.8551692 18.8044615,36.1683692 19.2622154,36.4608 L19.7307692,36.7607077 L20.1636,36.4151077 C21.7104923,35.1847385 23.6254154,33.9228 26.0944615,33.9228 C30.1128923,33.9228 33.7109538,36.0454154 34.4636308,38.8592308 L34.5658154,39.2413846 L34.9496308,39.3709846 C37.8456923,40.3479692 38.1804923,41.5916308 38.1804923,42.4448308 C38.1804923,43.5123692 37.4228308,44.6945538 36.2497846,45.4563692 C35.1905538,46.1450769 32.9541231,46.9185231 31.5301846,47.2092923 C28.6299692,47.8024615 25.8095077,48.0782769 22.6542462,48.0782769 Z" id="Path" fill="#FFFFFF" fill-rule="nonzero"></path>
            </g>
        </g>
    </g>
</svg>